<?xml version="1.0" encoding="utf-8"?>
<!-- Generator: Adobe Illustrator 24.0.1, SVG Export Plug-In . SVG Version: 6.00 Build 0)  -->
<svg version="1.1" id="Layer_1" xmlns="http://www.w3.org/2000/svg" xmlns:xlink="http://www.w3.org/1999/xlink" x="0px" y="0px"
	 viewBox="0 0 1366 1366" style="enable-background:new 0 0 1366 1366;" xml:space="preserve">
<style type="text/css">
	.st0{fill:#F4F6F9;}
</style>
<g>
	<path class="st0" d="M683.26,1199.66c-69.78,0-137.47-13.67-201.22-40.63c-61.56-26.04-116.84-63.31-164.3-110.77
		c-47.47-47.47-84.74-102.75-110.77-164.31c-26.96-63.74-40.63-131.44-40.63-201.22c0-69.78,13.67-137.47,40.63-201.22
		c26.04-61.56,63.31-116.84,110.77-164.3c47.47-47.47,102.75-84.74,164.3-110.77c63.74-26.96,131.44-40.63,201.22-40.63
		s137.47,13.67,201.22,40.63c61.56,26.04,116.84,63.31,164.31,110.77c47.47,47.47,84.74,102.75,110.77,164.3
		c26.96,63.74,40.63,131.44,40.63,201.22c0,69.78-13.67,137.47-40.63,201.22c-26.04,61.56-63.31,116.84-110.77,164.31
		c-47.47,47.47-102.75,84.74-164.31,110.77C820.74,1185.99,753.04,1199.66,683.26,1199.66z M683.26,205.83
		c-262.97,0-476.91,213.94-476.91,476.91s213.94,476.91,476.91,476.91c262.97,0,476.91-213.94,476.91-476.91
		S946.23,205.83,683.26,205.83z"/>
	<polygon class="st0" points="709.12,718.13 290.88,388.61 315.65,357.18 669.1,635.66 669.1,185.82 709.12,185.82 	"/>
</g>
</svg>
